<svg version="1.2" xmlns="http://www.w3.org/2000/svg" viewBox="0 0 470 253" width="470" height="253"><defs><clipPath clipPathUnits="userSpaceOnUse" id="cp1"><path d="m48 249h421.4v4h-421.4z"/></clipPath><linearGradient id="P" gradientUnits="userSpaceOnUse"/><linearGradient id="g1" x1="48" y1="251" x2="469.4" y2="251" href="#P"><stop stop-color="#fff" stop-opacity="0"/><stop offset="1" stop-color="#fff"/></linearGradient></defs><style>.a{opacity:.8;fill:#1e1f35}.b{opacity:.1;fill:url(#g1)}</style><path class="a" d="m470 0v253h-470v-182.3-70.7z"/><g clip-path="url(#cp1)"><path fill-rule="evenodd" class="b" d="m55.4 249l-1.9 4h-5.5l1.9-4zm9 0l-1.9 4h-5.5l1.9-4zm9 0l-1.9 4h-5.5l1.9-4zm9 0l-1.9 4h-5.5l1.9-4zm9 0l-1.9 4h-5.5l1.9-4zm9 0l-1.9 4h-5.5l1.9-4zm9 0l-1.9 4h-5.5l1.9-4zm9 0l-1.9 4h-5.5l1.9-4zm9 0l-1.9 4h-5.5l1.9-4zm9 0l-1.9 4h-5.5l1.9-4zm9 0l-1.9 4h-5.5l1.9-4zm9 0l-1.9 4h-5.5l1.9-4zm9 0l-1.9 4h-5.5l1.9-4zm9 0l-1.9 4h-5.5l1.9-4zm9 0l-1.9 4h-5.5l1.9-4zm9 0l-1.9 4h-5.5l1.9-4zm9 0l-1.9 4h-5.5l1.9-4zm9 0l-1.9 4h-5.5l1.9-4zm9 0l-1.9 4h-5.5l1.9-4zm9 0l-1.9 4h-5.5l1.9-4zm9 0l-1.9 4h-5.5l1.9-4zm9 0l-1.9 4h-5.5l1.9-4zm9 0l-1.9 4h-5.5l1.9-4zm9 0l-1.9 4h-5.5l1.9-4zm9 0l-1.9 4h-5.5l1.9-4zm9 0l-1.9 4h-5.5l1.9-4zm9 0l-1.9 4h-5.5l1.9-4zm9 0l-1.9 4h-5.5l1.9-4zm9 0l-1.9 4h-5.5l1.9-4zm9 0l-1.9 4h-5.5l1.9-4zm9 0l-1.9 4h-5.5l1.9-4zm9 0l-1.9 4h-5.5l1.9-4zm9 0l-1.9 4h-5.5l1.9-4zm9 0l-1.9 4h-5.5l1.9-4zm9 0l-1.9 4h-5.5l1.9-4zm9 0l-1.9 4h-5.5l1.9-4zm9 0l-1.9 4h-5.5l1.9-4zm9 0l-1.9 4h-5.5l1.9-4zm9 0l-1.9 4h-5.5l1.9-4zm9 0l-1.9 4h-5.5l1.9-4zm9 0l-1.9 4h-5.5l1.9-4zm9 0l-1.9 4h-5.5l1.9-4zm9 0l-1.9 4h-5.5l1.9-4zm9 0l-1.9 4h-5.5l1.9-4zm9 0l-1.9 4h-5.5l1.9-4zm9 0l-1.9 4h-5.5l1.9-4zm9 0l-1.9 4h-5.5l1.9-4z"/></g></svg>